<svg xmlns="http://www.w3.org/2000/svg" viewBox="0 0 277 90" enable-background="new 0 0 277 90"><style type="text/css">.st0{fill-rule:evenodd;clip-rule:evenodd;fill:#4A4B4C;stroke:#4A4B4C;stroke-width:0.5;stroke-miterlimit:10;} .st1{fill-rule:evenodd;clip-rule:evenodd;fill:#7FC241;}</style><path d="M87.8 27.2h2.02l2.53 8.44 2.6-8.48h1.58l2.6 8.48 2.53-8.44h1.95L100 38.66h-1.7l-2.6-8.18-2.6 8.18h-1.6zm22.52 2.8h1.9l-3.17 8.82c-.64 1.76-1.35 2.4-2.63 2.4-.76 0-1.33-.2-1.9-.5l.63-1.47c.33.2.7.33 1.07.33.5 0 .83-.24 1.13-.98l-3.33-8.6H106l2.25 6.38 2.07-6.4zm5.58-3.03h1.9v1.94h-1.9V27zm-2.54 10.26l4.62-5.63h-4.45V30h6.78v1.34l-4.6 5.63h4.6v1.6h-6.9v-1.34zm8.2.23l.8-1.33c.9.7 1.8 1.06 2.63 1.06.7 0 1.2-.4 1.2-1v-.1c0-.7-.9-.9-1.8-1.2-1.2-.4-2.5-.9-2.5-2.5v-.08c0-1.63 1.2-2.6 2.8-2.6 1 0 2.1.36 2.9 1l-.78 1.4c-.77-.5-1.6-.8-2.26-.8-.7 0-1.1.32-1.1.8v.04c0 .64.84.9 1.8 1.23 1.15.4 2.46.94 2.46 2.5 0 1.8-1.3 2.7-2.95 2.7-1.1 0-2.37-.46-3.37-1.3m7.74-.24l4.6-5.64h-4.4V30h6.75v1.34l-4.6 5.63h4.6v1.6h-6.94zm13.8-1.7v-.6c-.47-.2-1.1-.36-1.82-.36-1.17 0-1.87.56-1.87 1.45 0 .8.7 1.3 1.6 1.3 1.2 0 2.1-.76 2.1-1.85m-5.5.6c0-1.85 1.3-2.76 3.3-2.76.9 0 1.5.14 2.1.35v-.2c0-1.26-.7-1.9-1.95-1.9-.9 0-1.55.2-2.3.53l-.46-1.6c.87-.4 1.73-.7 3-.7 1.2 0 2.1.35 2.65.97.6.63.85 1.54.85 2.66v5.1H143v-1c-.54.7-1.37 1.26-2.6 1.26-1.5 0-2.82-.95-2.82-2.67zm13.45.83l1.13-1.43c1 .92 2.03 1.46 3.34 1.46 1.15 0 1.9-.6 1.9-1.44 0-.8-.44-1.26-2.4-1.75-2.27-.6-3.54-1.3-3.54-3.4v-.02c0-2 1.5-3.3 3.63-3.3 1.5 0 2.74.5 3.82 1.4l-1 1.5c-.95-.78-1.9-1.2-2.88-1.2-1.1 0-1.74.6-1.74 1.35 0 .85.48 1.24 2.53 1.76 2.2.6 3.4 1.46 3.4 3.34v.06c0 2.14-1.6 3.4-3.8 3.4-1.68 0-3.2-.6-4.48-1.8m9.76.3l4.6-5.64h-4.46V30h6.8v1.34l-4.6 5.63h4.63v1.6h-6.93zm8.82-10.54h1.84v7.1l3.32-3.8h2.2l-3.2 3.5 3.3 5.1h-2.18l-2.4-3.75-1.13 1.28v2.5h-1.8zm14.7 7.63V34c0-1.5-1-2.76-2.45-2.76-1.46 0-2.4 1.25-2.4 2.74V34c0 1.5 1 2.7 2.44 2.7 1.5 0 2.4-1.2 2.4-2.7m-6.7 0c0-2.5 1.83-4.5 4.3-4.5s4.23 2 4.23 4.43c0 2.42-1.8 4.45-4.26 4.45-2.43 0-4.23-2-4.23-4.44zm12.8-1.33v5.6h-1.84v-4.6l-1.17.64v-1.8l1.15-.6v-5.4h1.8v4.4l1.14-.62v1.9zm7.8 2.53v-.6c-.48-.2-1.1-.37-1.8-.37-1.2 0-1.9.52-1.9 1.4 0 .84.7 1.3 1.55 1.3 1.2 0 2.13-.73 2.13-1.82m-5.5.6v-.02c0-1.84 1.37-2.75 3.3-2.75.9 0 1.55.14 2.17.35v-.2c0-1.2-.7-1.87-2-1.87-.9 0-1.54.2-2.3.57l-.45-1.5c.88-.4 1.74-.7 3-.7 1.2 0 2.1.35 2.66.97.6.6.9 1.54.9 2.66v5.1H198v-.98c-.54.7-1.37 1.24-2.6 1.24-1.5 0-2.8-.93-2.8-2.65zm14.2-8.8h7.88v1.8h-6v2.95h5.4v1.8h-5.3v3.06h6.05v1.7h-7.9zm9.96-.5h1.8v7.1L222 30h2.2l-3.17 3.5 3.3 5.07h-2.16l-2.36-3.73-1.1 1.27v2.5h-1.8zM231.3 34c0-1.5-1-2.77-2.4-2.77-1.5 0-2.4 1.23-2.4 2.7v.1c0 1.5 1 2.76 2.4 2.76 1.48 0 2.4-1.3 2.4-2.8m-6.7 0c0-2.48 1.84-4.5 4.3-4.5 2.43 0 4.23 2 4.23 4.45v.1c0 2.44-1.82 4.47-4.3 4.47-2.42 0-4.22-2-4.22-4.47zm10.5-4h1.9v1.3c.5-.8 1.25-1.5 2.5-1.5 1.8 0 2.84 1.3 2.84 3.3v5.45h-1.9v-4.8c0-1.32-.6-2.1-1.7-2.1s-1.8.8-1.8 2.14v4.84h-1.9V30zm15.66 4.3v-.02c0-1.5-1-2.77-2.45-2.77-1.44 0-2.4 1.25-2.4 2.74v.04c0 1.5 1 2.74 2.46 2.74s2.4-1.24 2.4-2.72m-6.7 0v-.03c0-2.47 1.83-4.5 4.3-4.5s4.23 2 4.23 4.46v.03c0 2.43-1.85 4.46-4.3 4.46-2.45 0-4.25-2-4.25-4.45zm10.4-4.33h1.82v1.3c.5-.78 1.2-1.5 2.44-1.5 1.2 0 2 .6 2.4 1.5.7-.9 1.5-1.5 2.7-1.5 1.8 0 2.8 1.2 2.8 3.28v5.4h-1.8v-4.8c0-1.4-.6-2.1-1.6-2.1s-1.7.7-1.7 2.1v4.84h-1.8v-4.9c0-1.3-.6-2.07-1.6-2.07s-1.7.87-1.7 2.2v4.84h-1.83V30zm14.5 0h1.8v8.57H269v-8.6zm-.1-3.2h1.98v1.86h-1.98v-1.8zm4.4 3.2h1.84v8.57h-1.9v-8.6zm-.07-3.2h1.94v1.86h-1.98v-1.8zM88.5 52.05h1.83v8.6H88.5v-8.6zm-.08-3.2h1.97v1.88h-1.9v-1.87zm9.16.4h1.86v11.38H97.6zm4.48 2.8h1.83v1.32c.6-.8 1.3-1.5 2.5-1.5 1.8 0 2.9 1.3 2.9 3.3v5.47h-1.8v-4.88c0-1.33-.6-2.1-1.7-2.1-1.07 0-1.8.8-1.8 2.13v4.8h-1.8V52zm9.8 1.7h-1V52.1h1v-.63c0-.94.23-1.66.65-2.1.47-.47 1-.7 1.8-.7.7 0 1.1.1 1.5.24v1.7c-.3-.1-.6-.2-1-.2-.7 0-1 .4-1 1.3v.5h2.1v1.7h-2.1v6.9H112v-6.9zm11.38 2.64v-.08c0-1.5-1-2.76-2.45-2.76-1.4 0-2.4 1.3-2.4 2.8v.1c0 1.5 1 2.73 2.5 2.73s2.4-1.24 2.4-2.7m-6.7 0c0-2.47 1.9-4.5 4.3-4.5s4.3 2 4.3 4.46v.02c0 2.44-1.87 4.5-4.3 4.5-2.47 0-4.27-2-4.27-4.47zm10.4-4.4h1.8V54c.5-1.3 1.4-2.16 2.8-2.1v2.08h-.1c-1.6 0-2.7 1.12-2.7 3.4v3.27h-1.88v-8.6zm6.2 0h1.84v1.3c.5-.77 1.2-1.5 2.43-1.5 1.2 0 2 .6 2.4 1.5.7-.9 1.5-1.5 2.7-1.5 1.8 0 2.8 1.2 2.8 3.3v5.5h-1.8v-4.9c0-1.4-.6-2.1-1.6-2.1s-1.7.73-1.7 2.1v4.86h-1.8v-4.9c0-1.34-.6-2.1-1.6-2.1s-1.7.8-1.7 2.14v4.9h-1.86v-8.6zm19.34 5.5V57c-.48-.2-1.1-.35-1.83-.35-1.17 0-1.87.54-1.87 1.43v.03c0 .9.67 1.3 1.55 1.3 1.23 0 2.15-.7 2.15-1.8m-5.5.6c0-1.8 1.36-2.7 3.3-2.7.9 0 1.54.16 2.16.37v-.2c0-1.23-.7-1.9-1.96-1.9-.9 0-1.6.2-2.3.55l-.5-1.52c.82-.4 1.7-.7 3-.7 1.2 0 2.1.36 2.6.98.6.63.86 1.54.86 2.66v5.1h-1.8v-1.1c-.53.7-1.36 1.2-2.6 1.2-1.5 0-2.8-.9-2.8-2.6zm9.73.1v-4.5h-1v-1.7h1v-2.4h1.8v2.4h2.17v1.7h-2.1V58c0 .75.4 1.06 1 1.06.4 0 .77-.1 1.14-.3v1.62c-.45.28-.95.44-1.65.44-1.36 0-2.3-.7-2.3-2.6" class="st0"/><path d="M168.17 52.06h1.9l-3.17 8.83c-.64 1.7-1.35 2.4-2.63 2.4-.76 0-1.33-.2-1.9-.6l.63-1.5c.33.2.7.3 1.07.3.5 0 .83-.26 1.14-1l-3.3-8.6h2l2.3 6.36 2.1-6.4zm3.48-3.3h1.83v7.1l3.32-3.8h2.22l-3.18 3.5 3.3 5.1h-2.16l-2.36-3.74-1.14 1.27v2.4h-1.83zm8.92 3.3h1.83v8.6h-1.83v-8.6zm-.08-3.2h1.9v1.88h-2v-1.87zm8.1 3.2h1.8l1.6 5.88 1.8-5.92h1.6l1.72 5.92 1.63-5.88h1.83L198 60.7h-1.63l-1.8-5.8-1.8 5.9h-1.63zm18.4-2.8h1.9v5.72l5-5.72h2.3l-4.45 4.9 4.65 6.48h-2.27l-3.6-5.12-1.67 1.82v3.3H207zm10.8 2.8h1.8V54c.5-1.3 1.4-2.16 2.8-2.1v2.08h-.1c-1.6 0-2.74 1.12-2.74 3.4v3.27h-1.8v-8.6zm10.8 5.5v-.6c-.5-.2-1.1-.34-1.8-.34-1.2 0-1.9.54-1.9 1.43v.03c0 .83.7 1.3 1.55 1.3 1.2 0 2.12-.74 2.12-1.83m-5.5.62v-.03c0-1.85 1.34-2.76 3.3-2.76.9 0 1.52.15 2.14.36v-.2c0-1.23-.7-1.88-2-1.88-.9 0-1.54.2-2.3.54l-.46-1.54c.9-.42 1.75-.7 3-.7 1.2 0 2.1.34 2.67.96.6.62.85 1.53.85 2.65v5.1h-1.8V59.6c-.53.7-1.36 1.23-2.6 1.23-1.47-.02-2.8-.95-2.8-2.67zm9.4-9.4h1.84v7.1l3.3-3.8h2.3l-3.2 3.48 3.3 5.1h-2l-2.37-3.73-1.13 1.27v2.4h-1.84zm14.7 7.63v-.03c0-1.5-1-2.76-2.46-2.76-1.47 0-2.4 1.3-2.4 2.8v.1c0 1.5 1 2.8 2.43 2.8 1.47 0 2.4-1.25 2.4-2.73m-6.7 0c0-2.46 1.83-4.5 4.28-4.5s4.25 2 4.25 4.47v.04c0 2.46-1.84 4.5-4.3 4.5-2.45 0-4.25-2-4.25-4.45zm9.4-4.34h1.87l1.6 5.88 1.8-5.9h1.58l1.8 5.9 1.6-5.86h1.9l-2.62 8.63h-1.65l-1.7-6-1.8 5.87h-1.6zm13.8 0h1.83v8.6h-1.85v-8.6zm-.1-3.2h2v1.88h-2V49zm9.8 6.9c-.1-1.3-.8-2.27-2.05-2.27-1.1 0-1.9.9-2.08 2.26h4.1zm-5.9.6c0-2.47 1.6-4.5 3.9-4.5 2.5 0 3.8 2.2 3.8 4.66 0 .17 0 .35-.03.54h-5.85c.2 1.4 1.13 2.18 2.3 2.18.9 0 1.54-.33 2.17-1l1.03 1.03c-.74 1-1.8 1.6-3.25 1.6-2.32 0-4.1-1.8-4.1-4.47z" class="st0"/><path d="M.67 12.45h10.06V22.5H.67zm1.9 17.05h16.37v16.37H2.57zm67.68 17.25C67.7 44.13 63 39.6 63.4 36.57c1.26-9-3.82-15.38-12.34-19.98-4.53-2.5-10.26-3.7-15.82-3.3v-.1h-16.3v16.3H35v16.3H18.94v16.3h16.18v15.4H51.3s1.58-4.3 2.9-6c1.64-2.1 7.34-1 10.27-1.6 6-1.14 1.76-6.28 1.86-7.2.13-1.27 2.88-1.4 1.86-3.27-.4-.65-.7-.6-1.6-1.36 4.2-2.6-.4-3.18.5-6.2.3-1.27 5.4-2.8 3-5.3" class="st1"/></svg>